# xmcd
#
# Track frame offsets: 
#        150
#        13347
#        28960
#        41395
#        61277
#        73755
#        90055
#        104227
#        122492
#        136490
#        148807
#        168307
#        186820
#        198585
#
# Disc length: 2852 seconds
#
# Revision: 0
# Processed by: cddbd v1.4PL0 Copyright (c) Steve Scherf et al.
# Submitted via: ExactAudioCopy v0.90b3
#
DISCID=cd0b220e
DTITLE=Burrito Deluxe - Georgia Peach
DYEAR=2002
DGENRE=
TTITLE0=Wheels
TTITLE1=Secret of Life
TTITLE2=Cash on the Barrel Head
TTITLE3=Hickory Wind
TTITLE4=Bluest Brown Eyes
TTITLE5=She's Still the Queen
TTITLE6=Streets of Baltimore
TTITLE7=Call It Love
TTITLE8=Christine's Tune
TTITLE9=Old Memories
TTITLE10=She Once Lived Here
TTITLE11=Louisiana
TTITLE12=Feels Like a Heartache to Me
TTITLE13=G.P.
EXTD=
EXTT0=
EXTT1=
EXTT2=
EXTT3=
EXTT4=
EXTT5=
EXTT6=
EXTT7=
EXTT8=
EXTT9=
EXTT10=
EXTT11=
EXTT12=
EXTT13=
PLAYORDER=
